HIERARCHY
ROOT Hips
{
  OFFSET 13.6774 106.653 -34.4427
  CHANNELS 6 Xposition Yposition Zposition Zrotation Xrotation Yrotation
  JOINT ToSpine
  {
    OFFSET -2.69724 7.43032 -0.144315
    CHANNELS 3 Zrotation Xrotation Yrotation
    JOINT Spine
    {
      OFFSET -0.0310711 10.7595 1.96963
      CHANNELS 3 Zrotation Xrotation Yrotation
      JOINT Spine1
      {
        OFFSET 19.9056 3.91189 0.764692
        CHANNELS 3 Zrotation Xrotation Yrotation
        JOINT Neck
        {
          OFFSET 25.9749 7.03908 -0.130764
          CHANNELS 3 Zrotation Xrotation Yrotation
          JOINT Head
          {
            OFFSET 9.52751 0.295786 -0.907742
            CHANNELS 3 Zrotation Xrotation Yrotation
            End Site
            {
              OFFSET 16.4037 0.713936 2.7358
            }
          }
        }
        JOINT LeftShoulder
        {
          OFFSET 17.7449 4.33886 11.7777
          CHANNELS 3 Zrotation Xrotation Yrotation
          JOINT LeftArm
          {
            OFFSET 0.911315 1.27913 9.80584
            CHANNELS 3 Zrotation Xrotation Yrotation
            JOINT LeftForeArm
            {
              OFFSET 28.6126 1.18197 -3.53199
              CHANNELS 3 Zrotation Xrotation Yrotation
              JOINT LeftHand
              {
                OFFSET 27.5088 0.0218783 0.327423
                CHANNELS 3 Zrotation Xrotation Yrotation
                End Site
                {
                  OFFSET 18.6038 -0.000155887 0.382096
                }
              }
            }
          }
        }
        JOINT RightShoulder
        {
          OFFSET 17.1009 2.89543 -12.2328
          CHANNELS 3 Zrotation Xrotation Yrotation
          JOINT RightArm
          {
            OFFSET 1.4228 0.178766 -10.211
            CHANNELS 3 Zrotation Xrotation Yrotation
            JOINT RightForeArm
            {
              OFFSET 28.733 1.87905 2.64907
              CHANNELS 3 Zrotation Xrotation Yrotation
              JOINT RightHand
              {
                OFFSET 27.4588 0.290562 -0.101845
                CHANNELS 3 Zrotation Xrotation Yrotation
                End Site
                {
                  OFFSET 17.8396 -0.255518 -0.000602873
                }
              }
            }
          }
        }
      }
    }
  }
  JOINT LeftUpLeg
  {
    OFFSET -5.61296 -2.22332 -10.2353
    CHANNELS 3 Zrotation Xrotation Yrotation
    JOINT LeftLeg
    {
      OFFSET 2.56703 -44.7417 -7.93097
      CHANNELS 3 Zrotation Xrotation Yrotation
      JOINT LeftFoot
      {
        OFFSET 3.16933 -46.5642 -3.96578
        CHANNELS 3 Zrotation Xrotation Yrotation
        JOINT LeftToeBase
        {
          OFFSET 0.346054 -6.02161 12.8035
          CHANNELS 3 Zrotation Xrotation Yrotation
          End Site
          {
            OFFSET 0.134235 -1.35082 5.13018
          }
        }
      }
    }
  }
  JOINT RightUpLeg
  {
    OFFSET -5.7928 -1.72406 10.6446
    CHANNELS 3 Zrotation Xrotation Yrotation
    JOINT RightLeg
    {
      OFFSET -2.57161 -44.7178 -7.85259
      CHANNELS 3 Zrotation Xrotation Yrotation
      JOINT RightFoot
      {
        OFFSET -3.10148 -46.5936 -4.03391
        CHANNELS 3 Zrotation Xrotation Yrotation
        JOINT RightToeBase
        {
          OFFSET -0.0828122 -6.13587 12.8035
          CHANNELS 3 Zrotation Xrotation Yrotation
          End Site
          {
            OFFSET -0.131328 -1.35082 5.13018
          }
        }
      }
    }
  }
}
MOTION
Frames: 12
Frame Time: 0.03333333333333333
0.0000 93.1000 0.0000 55.1635 -18.0786 -7.4567 -70.5375 -0.0899 87.9029 100.9578 70.0608 -17.9563 -0.4465 20.9026 -2.0039 -154.9619 13.7536 170.0737 -150.6460 54.8334 -162.9978 -0.2193 -13.9491 -36.1266 -98.7537 37.6512 -61.0826 8.8413 2.2244 -76.9039 -0.1835 -0.2405 0.0325 -2.1891 4.5878 44.0652 -59.8605 -44.8354 73.0509 11.7607 -7.9652 60.1984 -0.0806 0.3252 -0.4691 -32.0805 -5.5899 100.0998 -10.6850 65.5919 -17.9414 2.8375 -18.5098 -1.9678 4.3479 -14.5512 18.6124 -28.9252 2.8217 92.0745 154.4249 80.7251 -160.6601 -7.8566 6.1324 0.6738 1.0495 -9.3494 -13.9956 
0.0000 93.1000 0.0000 54.1115 -15.2302 -5.2741 -70.6562 0.9446 88.1940 103.6658 67.8393 -19.4524 -0.8243 19.1429 -1.8328 -155.9663 13.7678 170.8277 -151.5080 54.0152 -162.9898 0.6017 -13.8599 -33.8458 -101.1826 36.0428 -65.9932 13.1818 -0.0192 -87.2257 0.3905 -0.8399 -0.2164 -1.8533 5.1712 44.7552 -55.7314 -45.0914 69.6381 14.3384 -9.6056 58.2312 0.2042 0.9881 0.2486 -37.0619 -7.0619 98.5665 -9.1487 61.8293 -19.1723 2.9950 -20.0720 -2.1831 6.1489 -15.5946 19.5331 -16.9529 6.6537 92.2921 160.5963 76.2996 -165.5537 -9.0484 5.9355 1.3721 1.6100 -14.6696 -18.7677 
0.0000 93.1000 0.0000 55.3177 -12.1872 -2.4253 -70.8742 0.6194 88.3555 104.3909 64.8458 -19.8493 -1.4985 16.4668 0.0574 -156.0685 12.8856 170.9534 -150.4531 52.8250 -164.9445 0.5580 -13.3628 -31.1782 -103.8803 37.0102 -66.3548 15.8388 -2.4252 -95.4008 0.5149 -1.3368 -0.8113 -2.4100 6.1056 44.9667 -54.9278 -46.2417 64.5078 17.1992 -10.8083 60.3402 -0.4092 1.4450 -0.6890 -44.8989 -7.2897 95.0753 -6.4035 56.6595 -18.8916 2.4975 -17.0275 -1.1514 6.7730 -15.4804 9.4793 -8.0073 7.8501 89.0199 154.2690 80.8721 -158.2526 -9.6817 4.0685 0.8776 1.8650 -15.6941 -17.7764 
0.0000 93.1000 0.0000 55.0847 -9.6526 0.4754 -70.9718 -0.5003 88.3125 106.6090 63.3842 -20.3954 -1.6517 14.2644 1.3317 -155.8208 12.1727 171.5655 -147.6702 51.7079 -169.6933 -0.0975 -13.3463 -30.3543 -104.7238 38.4190 -64.2613 17.3744 -4.7516 -103.2472 -0.0599 -0.8170 0.2039 -2.9715 6.7155 45.4295 -55.9447 -47.2152 58.3488 16.2834 -9.8455 61.2405 -1.3358 0.9221 -1.1493 -54.7975 -5.8875 92.0361 -4.9502 47.3138 -18.0537 -0.8837 -6.1992 0.7697 7.8309 -19.0537 -3.5181 -3.9273 10.0155 86.8777 65.3744 86.0312 -65.4810 -7.7827 5.5075 -0.6583 1.1779 -22.6218 -20.4513 
0.0000 93.1000 0.0000 57.2246 -9.0653 3.0751 -70.9249 -0.3507 87.9305 107.4684 62.7565 -19.4994 -1.8971 12.8360 3.6880 -155.9415 11.9576 175.0638 -148.2173 51.7001 -167.1385 0.0936 -13.1053 -28.9143 -101.4197 40.2983 -63.3657 18.2494 -7.2467 -109.2214 -0.3212 -0.7006 0.3010 -2.6017 6.4094 43.6886 -59.9958 -47.4526 51.7050 14.9784 -7.8922 63.1908 -1.0517 0.8953 -1.0406 -63.0019 -4.9152 90.9244 -4.0071 38.4314 -20.0475 -7.2431 8.9548 2.8431 7.5607 -17.4752 -14.4097 -4.8406 9.9256 85.9095 7.5080 70.6549 -8.9639 -3.0693 4.2833 -1.0777 0.3094 -18.1645 -16.6200 
0.0000 93.1000 0.0000 54.1400 -8.0596 1.9689 -70.8689 -0.5405 87.8397 99.8227 63.4346 -12.7117 -1.8517 12.7441 4.7283 -157.7001 11.8310 172.6943 -149.1748 51.1683 -174.6299 -0.2243 -13.1230 -27.7933 -96.9374 42.1115 -64.0672 19.4327 -8.1349 -110.0647 -0.2962 -0.4609 0.3133 -2.6990 6.3945 43.7252 -64.2502 -46.4634 48.0768 16.2249 -8.0859 65.1459 -0.9331 0.7339 -0.7274 -66.2271 -6.0571 91.7323 -2.8972 33.3006 -24.7297 -11.6412 16.5967 4.3111 1.8283 -0.5973 -8.4623 -5.1692 9.1500 86.3347 2.9146 52.3879 2.1279 -1.8731 4.1039 -1.1488 0.8335 -16.2617 -22.8429 
0.0000 93.1000 0.0000 53.1691 -6.9184 0.5195 -70.6424 -0.4707 87.8838 92.6867 63.8911 -5.7012 -0.3699 12.7708 4.3763 -159.6535 12.5342 172.5257 -148.8074 51.0822 -176.0049 -0.3174 -13.3024 -27.0231 -89.7523 44.8384 -66.1208 17.6089 -7.3058 -108.9672 -0.1249 0.0329 0.3747 -2.2144 5.9082 41.8780 -67.1151 -46.3842 48.6168 18.0300 -8.9925 66.3588 -0.0560 0.1441 -0.2392 -66.0069 -6.9920 91.0534 -4.3061 36.2857 -18.6515 -9.7982 13.2651 3.0464 -1.9342 3.9263 -3.0879 -8.0111 8.1137 84.7148 1.9973 37.8837 10.4886 -2.0944 9.8771 -0.9086 1.5112 -25.8883 -28.5809 
0.0000 93.1000 0.0000 54.1398 -6.0368 -2.1175 -70.5868 0.3467 87.8137 94.9241 65.0074 -8.5869 -0.5110 14.2465 3.7800 -158.8620 13.6482 172.5880 -147.1284 52.1604 -176.2743 0.0691 -14.7715 -28.2518 -82.2768 46.3374 -67.9045 15.9634 -4.2356 -102.0145 0.2826 -0.2473 -0.2590 -1.7966 5.3795 43.7335 -71.1337 -44.1315 49.8457 16.7975 -8.1807 66.9165 0.7463 0.4083 0.1807 -64.7858 -8.8843 92.0206 -4.1768 44.4188 -12.0886 -6.9659 7.2656 1.2999 -2.0217 1.1445 -1.3689 -10.2098 5.5359 82.0047 2.4216 37.9025 6.0111 -2.0865 10.1429 -0.0225 2.2772 -25.4132 -28.6267 
0.0000 93.1000 0.0000 57.4866 -5.2645 -2.2704 -70.6444 0.1427 87.9382 100.6988 65.9688 -14.9573 -1.3939 14.8972 4.0451 -159.8387 15.0155 176.3087 -147.6969 53.6076 -175.3955 -0.1334 -14.8197 -29.7947 -77.9600 48.5759 -69.0806 16.5873 -2.1800 -93.0056 0.1174 -0.1439 -0.0935 -1.9353 4.7544 44.0728 -72.9125 -42.0274 53.7504 17.3686 -8.2212 66.9508 0.5099 0.3708 0.0860 -62.1229 -8.9882 92.7829 -5.5527 56.3324 -7.7087 -6.7152 4.8816 1.1262 -1.9434 -1.1709 5.5633 -13.0784 4.6538 81.8200 1.2441 44.9120 -2.0759 -4.2883 -0.6444 0.3756 1.3237 -6.4409 -19.0883 
0.0000 93.1000 0.0000 58.7435 -5.4038 -0.9145 -70.9469 0.0108 87.9339 109.9320 65.8198 -22.0235 -2.8457 16.0793 4.5671 -158.0409 16.0319 176.7054 -145.7297 54.9254 -177.3459 -0.3611 -15.8499 -31.1214 -74.0451 49.9992 -68.9592 17.6771 1.8863 -84.1835 -0.3205 -0.2684 -0.3002 -2.2954 5.1035 44.9875 -73.4113 -38.1552 58.9754 16.8665 -6.9066 69.1191 -0.2440 0.3301 -0.3668 -56.1552 -5.2386 93.7070 -10.0242 70.4232 1.8813 -5.8878 3.3465 1.0236 -0.2313 -4.2490 6.3381 -17.6734 5.7910 82.0114 1.0001 51.8583 -9.8717 -14.9244 -7.3013 1.7000 0.0806 -13.6330 -2.4064 
0.0000 93.1000 0.0000 60.7403 -5.1453 0.9969 -70.7737 0.8903 88.0645 121.9491 64.9284 -30.9611 -2.7410 17.0631 3.6123 -160.8650 16.4985 177.3298 -145.3332 56.0234 -176.3975 -0.1825 -15.8894 -33.1300 -72.1472 51.1195 -70.0205 13.5964 4.1120 -72.8953 -0.2710 0.4624 0.3728 -1.1508 5.6523 45.6075 -73.8253 -35.6476 67.7533 18.0794 -7.3900 71.0441 0.6767 -0.4876 0.7119 -46.8115 0.3974 93.9290 -36.3218 83.5746 29.8364 -4.5827 2.0563 -0.8268 0.3695 -4.9159 7.9334 -22.9688 8.7985 84.9217 3.4939 56.8995 -3.0762 -14.0012 -12.5455 2.6327 2.8525 -16.3809 -29.4173 
0.0000 93.1000 0.0000 60.7339 -8.1444 -0.0493 -70.7409 -2.1801 88.2031 128.9115 65.7245 -37.0424 -5.5890 20.1767 1.8766 -162.9191 18.7517 -180.3717 -152.3152 58.5281 -171.2940 -1.8443 -16.2869 -32.4866 -69.1567 53.1576 -70.8559 10.4569 3.6841 -65.3361 -0.1757 0.0556 0.5144 -4.1440 6.2404 43.8404 -75.7664 -36.0788 76.1261 18.9158 -6.8197 73.0195 -0.7829 0.1692 -0.8914 -33.6348 3.8600 95.4024 -131.9488 84.3788 128.1131 -2.1226 0.3926 1.3472 3.4994 -10.0882 9.2677 -28.5725 8.9009 86.3644 4.3127 58.9390 -1.6917 -14.7346 -17.0830 -0.7006 0.7224 -21.1586 -33.5549 
